<svg width="58" height="55" viewBox="0 0 58 55" fill="none" xmlns="http://www.w3.org/2000/svg">
<path fill-rule="evenodd" clip-rule="evenodd" d="M44.9101 16.2025H36.9287C36.6198 16.2053 36.3181 16.1088 36.0681 15.9272C35.818 15.7457 35.6329 15.4886 35.54 15.194L33.06 7.60527C32.9899 7.38567 32.9725 7.15264 33.0092 6.92506C33.0459 6.69748 33.1358 6.48176 33.2714 6.29538C33.4071 6.109 33.5848 5.9572 33.79 5.8523C33.9953 5.74739 34.2224 5.69233 34.4529 5.69157H39.8634L39.1442 3.49266H31.4811L25.8309 20.8524C25.7385 21.1474 25.5536 21.4048 25.3034 21.5865C25.0533 21.7682 24.7513 21.8644 24.4421 21.8609H19.1722L14.4024 18.4096H22.9872L26.8022 6.66288L25.7689 3.48439H18.1224L15.1175 12.7388H18.8829L20.0485 9.15524H18.639L19.7633 5.69157H22.8054C23.0358 5.69209 23.2629 5.74704 23.4681 5.85197C23.6734 5.95689 23.8509 6.10882 23.9863 6.29535C24.1216 6.48189 24.211 6.69777 24.2471 6.92541C24.2833 7.15304 24.2651 7.38598 24.1941 7.60527L21.7142 15.194C21.6204 15.489 21.4346 15.7461 21.1838 15.9277C20.9331 16.1092 20.6308 16.2055 20.3213 16.2025H12.3358C12.1049 16.2026 11.8774 16.1481 11.6716 16.0435C11.4659 15.9388 11.2878 15.787 11.152 15.6004C11.0161 15.4137 10.9264 15.1976 10.89 14.9697C10.8537 14.7417 10.8718 14.5084 10.9429 14.2888L12.5962 9.15524H10.2733L7.90904 16.4381L22.6938 27.1846C22.9462 27.3633 23.1341 27.6188 23.2294 27.913C23.3248 28.2073 23.3225 28.5244 23.2228 28.8172L21.5695 33.8474L16.7997 37.3111L19.507 29.119L9.52102 21.8651H6.1648L3.80057 29.1479L8.57863 32.6198L11.6744 34.8683L12.84 31.2848L9.78968 29.0694L9.35568 30.4127L6.40866 28.2923L7.34691 25.399C7.41842 25.1799 7.54068 24.9808 7.70373 24.8179C7.86678 24.655 8.06601 24.5329 8.28518 24.4616C8.50435 24.3903 8.73727 24.3718 8.96496 24.4075C9.19265 24.4433 9.40866 24.5323 9.59541 24.6674L16.0557 29.3463C16.3079 29.5253 16.4958 29.7806 16.5918 30.0746C16.6878 30.3686 16.6868 30.6856 16.5889 30.9789L14.1089 38.5676C14.0374 38.7867 13.9152 38.9858 13.7521 39.1487C13.5891 39.3116 13.3899 39.4337 13.1707 39.505C12.9515 39.5763 12.7186 39.5949 12.4909 39.5591C12.2632 39.5233 12.0472 39.4343 11.8605 39.2992L7.49985 36.1455L6.78479 38.3568L12.9847 42.8621L27.7694 32.1156C28.0178 31.9304 28.3193 31.8304 28.6291 31.8304C28.9389 31.8304 29.2405 31.9304 29.4889 32.1156L33.7585 35.2155L35.5813 40.8244L28.6291 35.7735L18.6349 43.0357L17.6016 46.2142L23.8015 50.7194C26.4385 48.8057 29.059 46.9168 31.6878 45.0073L28.6415 42.7588L25.5953 44.9742L26.732 45.8008L23.7849 47.9419L21.3256 46.1563C21.1402 46.02 20.9895 45.8419 20.8856 45.6366C20.7817 45.4312 20.7276 45.2043 20.7276 44.9742C20.7276 44.7441 20.7817 44.5171 20.8856 44.3118C20.9895 44.1064 21.1402 43.9284 21.3256 43.7921L27.7818 39.1008C28.0302 38.9156 28.3317 38.8156 28.6415 38.8156C28.9513 38.8156 29.2529 38.9156 29.5013 39.1008L35.9574 43.7921C36.1428 43.9284 36.2936 44.1064 36.3975 44.3118C36.5014 44.5171 36.5555 44.7441 36.5555 44.9742C36.5555 45.2043 36.5014 45.4312 36.3975 45.6366C36.2936 45.8419 36.1428 46.02 35.9574 46.1563L31.5886 49.3307L33.4568 50.6864L37.7761 47.5492L39.6526 46.1852L34.0024 28.8007C33.8996 28.5046 33.896 28.1831 33.9922 27.8848C34.0884 27.5865 34.2792 27.3276 34.5356 27.1474L38.7887 24.0805H44.6993L37.7471 29.119L41.5621 40.8574L44.2736 42.829L50.4735 38.3279L48.63 32.6529L47.4686 29.0942L44.4224 31.3055L45.588 34.889L46.7287 34.0624L47.853 37.526L45.402 39.3116C45.2158 39.4477 45 39.5376 44.7723 39.5742C44.5446 39.6107 44.3115 39.5927 44.0921 39.5217C43.8726 39.4507 43.6732 39.3288 43.51 39.1658C43.3469 39.0028 43.2247 38.8035 43.1535 38.5841L40.6735 30.9955C40.5707 30.6994 40.5671 30.3778 40.6633 30.0795C40.7595 29.7812 40.9503 29.5224 41.2067 29.3421L47.6587 24.655C47.8453 24.519 48.0614 24.4291 48.2893 24.3926C48.5173 24.3561 48.7506 24.374 48.9703 24.445C49.19 24.5159 49.3898 24.6379 49.5534 24.8008C49.7169 24.9637 49.8396 25.1631 49.9114 25.3825L51.5647 30.5077L53.4453 29.1438L51.0769 21.8568H32.812C32.5023 21.8605 32.1997 21.7644 31.9488 21.5828C31.698 21.4012 31.5122 21.1436 31.4191 20.8483L29.7865 15.8222L31.6092 10.2134L34.2669 18.3931H46.613L49.3203 16.4257L46.9561 9.13871H37.2222L38.3837 12.7223H42.1532L41.7399 11.3831H45.3813L46.3195 14.2764C46.3915 14.4957 46.4103 14.7289 46.3746 14.9569C46.3389 15.1849 46.2496 15.4012 46.114 15.588C45.9785 15.7748 45.8005 15.9267 45.5948 16.0314C45.3891 16.1361 45.1616 16.1905 44.9308 16.1901L44.9101 16.2025ZM43.5089 5.69157C43.5089 5.69157 46.6709 5.69157 48.4068 5.69157C48.717 5.68815 49.0201 5.78481 49.271 5.96723C49.5219 6.14964 49.7073 6.40809 49.7998 6.70422C50.8124 9.81244 52.3872 14.669 53.065 16.7563C53.1633 17.0492 53.165 17.366 53.0697 17.6599C52.9745 17.9538 52.7874 18.2094 52.536 18.389L52.5071 18.4096H52.5401C52.8503 18.4062 53.1534 18.5029 53.4043 18.6853C53.6552 18.8677 53.8406 19.1262 53.933 19.4223C54.6729 21.6956 56.4585 27.197 57.1983 29.4744C57.2973 29.7673 57.2993 30.0842 57.204 30.3783C57.1087 30.6724 56.9212 30.9279 56.6693 31.1071L52.7013 34.0003L54.2141 38.6668C54.318 38.9624 54.3226 39.2838 54.2271 39.5823C54.1316 39.8807 53.9413 40.1398 53.685 40.3201L45.1333 46.52C44.8856 46.7049 44.5847 46.8047 44.2756 46.8047C43.9665 46.8047 43.6657 46.7049 43.418 46.52L43.3849 46.4994V46.5366C43.4828 46.8299 43.4838 47.1469 43.3878 47.4409C43.2918 47.7348 43.1039 47.9902 42.8517 48.1692L34.3041 54.3691C34.055 54.5524 33.7537 54.6513 33.4444 54.6513C33.1351 54.6513 32.8338 54.5524 32.5847 54.3691L28.6167 51.4758L24.6488 54.3691C24.4003 54.5521 24.0997 54.6508 23.7911 54.6508C23.4825 54.6508 23.182 54.5521 22.9335 54.3691L14.4024 48.132C14.146 47.9518 13.9552 47.6929 13.859 47.3946C13.7628 47.0963 13.7664 46.7748 13.8692 46.4787V46.4539C13.6208 46.6391 13.3193 46.7391 13.0095 46.7391C12.6997 46.7391 12.3982 46.6391 12.1498 46.4539L3.59391 40.254C3.34147 40.0753 3.15357 39.8198 3.05823 39.5255C2.96288 39.2313 2.96521 38.9141 3.06485 38.6213L4.57762 33.9549L0.609682 31.0616C0.353986 30.8808 0.164072 30.6217 0.0686282 30.3234C-0.0268158 30.0252 -0.0226044 29.7039 0.0806239 29.4083L3.34591 19.3603C3.43754 19.0645 3.6222 18.8062 3.87241 18.6237C4.12262 18.4413 4.42504 18.3445 4.73469 18.3476H4.78015L4.74296 18.3228C4.49155 18.1432 4.30445 17.8877 4.20921 17.5938C4.11397 17.2998 4.11561 16.9831 4.2139 16.6902L7.47918 6.64221C7.57082 6.34642 7.75547 6.08809 8.00568 5.90565C8.2559 5.7232 8.55831 5.62637 8.86796 5.62956H13.77L15.2621 1.0127C15.3549 0.717602 15.5399 0.460022 15.7898 0.277765C16.0398 0.0955084 16.3416 -0.00182488 16.6509 4.82033e-05H27.2156C27.5251 -0.00248126 27.8272 0.0946001 28.0772 0.276951C28.3273 0.459303 28.5121 0.717253 28.6043 1.0127C28.6979 0.717271 28.8836 0.459569 29.1343 0.277343C29.3849 0.0951158 29.6874 -0.00205812 29.9972 4.82033e-05H40.5702C40.88 -0.00205812 41.1825 0.0951158 41.4331 0.277343C41.6838 0.459569 41.8695 0.717271 41.9631 1.0127L43.5089 5.69157Z" fill="#E6AA57"/>
</svg>
